<svg
    version="1.1"
    id="_x31_0"
    xmlns="http://www.w3.org/2000/svg"
    xmlns:xlink="http://www.w3.org/1999/xlink"
    x="0px"
    y="0px"
    viewBox="0 0 512 512"
    style="width: width; height: height; opacity: 1;"
    xml:space="preserve"
  >
    <style type="text/css">
      .st0{fill:#374149;}
    </style>
    <g>
      <path class="st0" d="M89.853,274.332c19.382-10.238,28.546-52.187,9.652-87.977c-18.898-35.789-53.855-54.422-78.082-41.617
        c-24.23,12.801-28.551,52.191-9.657,87.977C30.665,268.504,70.47,284.574,89.853,274.332z" style="fill: rgb(75, 75, 75);"></path>
      <path class="st0" d="M490.579,144.738c-24.226-12.805-59.188,5.828-78.082,41.617c-18.898,35.79-9.73,77.738,9.653,87.977
        c19.382,10.242,59.187-5.828,78.082-41.617C519.13,196.93,514.806,157.539,490.579,144.738z" style="fill: rgb(75, 75, 75);"></path>
      <path class="st0" d="M319.49,187.625c9.914,1.836,21.797-2.113,32.758-10.312c0.043-0.035,0.09-0.066,0.137-0.098
        c1.382-1.043,2.742-2.16,4.09-3.336c0.191-0.164,0.383-0.324,0.574-0.492c1.285-1.149,2.543-2.356,3.781-3.622
        c0.199-0.203,0.398-0.402,0.598-0.61c1.27-1.316,2.5-2.695,3.707-4.133c0.114-0.136,0.226-0.269,0.34-0.406
        c9.34-11.266,16.664-25.962,19.23-42.926c3.454-22.824,3.226-43.855-4.539-59.594c-0.023-0.042-0.042-0.09-0.062-0.133
        c-0.746-1.5-1.582-2.938-2.469-4.336c-0.195-0.305-0.375-0.625-0.578-0.926c-0.794-1.187-1.665-2.32-2.57-3.426
        c-0.332-0.402-0.653-0.817-0.996-1.203c-0.902-1.031-1.883-2.008-2.895-2.957c-0.374-0.348-0.742-0.699-1.133-1.035
        c-1.109-0.973-2.289-1.891-3.523-2.77c-0.285-0.203-0.57-0.398-0.863-0.594c-6.027-4.086-13.426-7.157-22.625-8.86
        c-14.668-2.714-26.141-0.652-35.223,4.817c-0.418,0.25-0.843,0.488-1.254,0.758c-0.957,0.625-1.882,1.297-2.785,2
        c-0.485,0.375-0.962,0.77-1.43,1.172c-0.882,0.75-1.742,1.527-2.57,2.351c-0.356,0.36-0.699,0.742-1.047,1.114
        c-11.375,12.164-17.543,31.504-20.906,53.722C270.895,143.703,295.747,183.23,319.49,187.625z" style="fill: rgb(75, 75, 75);"></path>
      <path class="st0" d="M134.946,56.699c-0.203,0.305-0.386,0.629-0.586,0.942c-0.882,1.394-1.714,2.824-2.461,4.32
        c-0.023,0.051-0.042,0.102-0.066,0.149c-7.762,15.738-7.988,36.762-4.535,59.582c2.566,16.969,9.891,31.668,19.234,42.934
        c0.11,0.13,0.219,0.262,0.328,0.391c1.211,1.445,2.45,2.828,3.723,4.152c0.191,0.199,0.382,0.39,0.574,0.582
        c1.25,1.273,2.515,2.496,3.812,3.648c0.176,0.157,0.356,0.305,0.535,0.461c1.359,1.188,2.734,2.317,4.133,3.367
        c0.023,0.02,0.051,0.035,0.078,0.059c10.969,8.218,22.871,12.179,32.797,10.339c23.738-4.394,48.594-43.922,42.254-85.832
        c-3.363-22.222-9.539-41.57-20.918-53.73c-0.344-0.367-0.684-0.746-1.035-1.102c-0.828-0.828-1.695-1.609-2.578-2.363
        c-0.465-0.398-0.938-0.785-1.418-1.156c-0.902-0.711-1.832-1.386-2.793-2.012c-0.41-0.266-0.829-0.504-1.246-0.75
        c-9.082-5.469-20.558-7.539-35.226-4.821c-9.199,1.699-16.598,4.774-22.626,8.86c-0.293,0.195-0.578,0.394-0.863,0.594
        c-1.234,0.878-2.418,1.797-3.527,2.766c-0.386,0.34-0.758,0.691-1.133,1.039c-1.011,0.949-1.988,1.926-2.89,2.953
        c-0.344,0.39-0.668,0.809-1,1.211C136.61,54.387,135.739,55.516,134.946,56.699z" style="fill: rgb(75, 75, 75);"></path>
      <path class="st0" d="M378.235,307.66c-13.82-3.648-24.648-14.062-30.008-27.312c-13.542-33.485-49.714-57.45-92.226-57.45
        c-42.511,0-78.687,23.965-92.23,57.45c-5.359,13.25-16.187,23.664-30.004,27.312c-40.43,10.664-69.906,43.79-69.906,83.024
        c0,47.855,43.855,86.648,97.953,86.648c25.48,0,48.679-8.606,66.094-22.714c16.344-13.238,39.844-13.238,56.187,0
        c17.414,14.105,40.614,22.714,66.09,22.714c54.098,0,97.957-38.793,97.957-86.648C448.142,351.45,418.661,318.324,378.235,307.66z" style="fill: rgb(75, 75, 75);"></path>
    </g>
  </svg>
